<svg width="100" height="100" viewBox="0 0 100 100" fill="none" xmlns="http://www.w3.org/2000/svg">
<path d="M16.2131 78.0485V38.8434V21.6913C20.9857 22.3824 33.2437 23.7646 44.095 23.7646C54.9464 23.7646 65.3207 22.3824 69.1511 21.6913V77.8596C65.2578 79.8072 54.3812 82.0817 42.0227 81.6294C29.6643 81.1771 19.667 80.436 16.2131 78.0485Z" fill="#AAE3D0" stroke="#AAE3D0" stroke-width="4.23504" stroke-linejoin="round"/>
<path d="M42.6822 23.4562C57.6254 23.4562 69.7394 22.4028 69.7394 21.1034C69.7394 19.804 57.6254 18.7506 42.6822 18.7506C27.7389 18.7506 15.625 19.804 15.625 21.1034C15.625 22.4028 27.7389 23.4562 42.6822 23.4562Z" fill="#AAE3D0"/>
<mask id="mask0_709_6700" style="mask-type:alpha" maskUnits="userSpaceOnUse" x="15" y="18" width="55" height="6">
<path d="M42.8458 23.2818C57.7586 23.2818 69.8479 22.2673 69.8479 21.0159C69.8479 19.7645 57.7586 18.75 42.8458 18.75C27.9329 18.75 15.8436 19.7645 15.8436 21.0159C15.8436 22.2673 27.9329 23.2818 42.8458 23.2818Z" fill="#202020"/>
</mask>
<g mask="url(#mask0_709_6700)">
<path d="M42.8458 26.4545C57.7586 26.4545 69.8479 25.4401 69.8479 24.1886C69.8479 22.9372 57.7586 21.9227 42.8458 21.9227C27.9329 21.9227 15.8436 22.9372 15.8436 24.1886C15.8436 25.4401 27.9329 26.4545 42.8458 26.4545Z" fill="#202020"/>
</g>
<path d="M64.8779 35.8087C71.1575 35.8615 83.8591 38.9155 84.4303 50.7087C85.0008 62.5018 68.2077 63.548 59.74 62.5969" stroke="#AAE3D0" stroke-width="9.31708"/>
<path d="M45.4913 44.2593C49.7 44.6402 53.0095 46.1636 55.4199 48.8295C57.8686 51.4574 59.0929 54.7708 59.0929 58.7697C59.0929 63.0352 57.6964 66.539 54.9034 69.2811C52.1104 72.0232 48.38 73.3943 43.7122 73.3943C39.0445 73.3943 35.3141 72.0232 32.521 69.2811C29.7663 66.539 28.3889 63.0352 28.3889 58.7697C28.3889 55.1897 29.3646 52.1429 31.3158 49.6293L42.9088 33.6908H53.526L45.4913 44.2593ZM43.7122 66.0249C45.7783 66.0249 47.3852 65.3584 48.5331 64.0254C49.7191 62.6543 50.3122 60.9024 50.3122 58.7697C50.3122 56.6369 49.7191 54.9041 48.5331 53.5711C47.3852 52.2381 45.7783 51.5716 43.7122 51.5716C41.6844 51.5716 40.0775 52.2381 38.8914 53.5711C37.7053 54.9041 37.1123 56.6369 37.1123 58.7697C37.1123 60.9024 37.7053 62.6543 38.8914 64.0254C40.0775 65.3584 41.6844 66.0249 43.7122 66.0249Z" fill="#015057"/>
</svg>
