<svg width="194" height="58" viewBox="0 0 194 58" fill="none" xmlns="http://www.w3.org/2000/svg">
<g clip-path="url(#clip0_836_589)">
<circle cx="29.4354" cy="30.105" r="29.4354" fill="url(#paint0_linear_836_589)"/>
</g>
<path d="M23.4966 13.8437L7.72772 29.5696C6.14556 31.1474 5.25635 33.29 5.25635 35.5245V48.9202C5.25635 53.565 9.02166 57.3303 13.6664 57.3303H45.2042C49.8489 57.3303 53.6143 53.565 53.6143 48.9202V35.5245C53.6143 33.29 52.725 31.1474 51.1429 29.5696L35.374 13.8437C32.0915 10.5701 26.7791 10.5701 23.4966 13.8437Z" fill="white"/>
<path d="M21.8391 23.8203L17.3032 28.3562V55.3391H21.8391V23.8203Z" fill="#4748BE"/>
<path d="M33.7304 29.4307V23.937H40.8176V50.2629H46.162V55.3392H33.7304V49.3016H28.6184V41.683H33.7304V37.5258H28.6184V29.4307H33.7304Z" fill="#02BF92"/>
<path fill-rule="evenodd" clip-rule="evenodd" d="M27.2044 50.1945V41.3204H32.4636V38.036H27.2044V28.5833H32.4636V25.3789H23.2513V53.8973H32.4636V50.1945H27.2044ZM33.9056 48.7526V55.3392H21.8093V23.937H33.9056V30.0252H28.6463V36.594H33.9056V42.7623H28.6463V48.7526H33.9056Z" fill="#4748BE"/>
<path d="M77.5421 22.6768V20.1613H83.1383V16.3759H77.5421V13.9082H83.7709V9.90728H72.8706V26.6778H83.9898V22.6768H77.5421Z" fill="#015057"/>
<path d="M107.284 26.6778L104.729 9.90728H100.058L96.0186 19.0352L92.004 9.90728H87.3082L84.7291 26.6778H89.4979L90.8118 17.0467L95.313 26.7257H96.6999L101.225 17.0228L102.539 26.6778H107.284Z" fill="#015057"/>
<path d="M115.883 9.90728H108.632V26.6778H113.328V22.0539H115.883C119.508 22.0539 122.209 19.4904 122.209 15.9686C122.209 12.4708 119.508 9.90728 115.883 9.90728ZM115.323 18.029H113.328V13.9562H115.323C116.564 13.9562 117.367 14.7947 117.367 15.9926C117.367 17.1905 116.564 18.029 115.323 18.029Z" fill="#015057"/>
<path d="M131.833 27.109C137.307 27.109 141.2 23.4435 141.2 18.3165C141.2 13.1656 137.307 9.5 131.833 9.5C126.358 9.5 122.465 13.1895 122.465 18.3165C122.465 23.4195 126.358 27.109 131.833 27.109ZM131.833 22.8206C129.254 22.8206 127.331 20.9039 127.331 18.3165C127.331 15.7051 129.254 13.7885 131.833 13.7885C134.436 13.7885 136.31 15.6811 136.31 18.3165C136.31 20.9279 134.436 22.8206 131.833 22.8206Z" fill="#015057"/>
<path d="M160.825 9.90728L158.124 19.5863L153.988 10.0031H152.382L148.319 19.5863L145.545 9.90728H140.508L145.837 26.6778H149.973L153.185 18.604L156.445 26.6778H160.581L165.837 9.90728H160.825Z" fill="#015057"/>
<path d="M171.307 22.6768V20.1613H176.903V16.3759H171.307V13.9082H177.535V9.90728H166.635V26.6778H177.754V22.6768H171.307Z" fill="#015057"/>
<path d="M188.639 26.6778H193.871L190.489 20.5925C192.167 19.6102 193.189 17.9092 193.189 15.8488C193.189 12.351 190.513 9.90728 186.863 9.90728H179.467V26.6778H184.163V21.5508H185.866L188.639 26.6778ZM184.163 14.028H186.304C187.618 14.028 188.372 14.7947 188.372 15.8488C188.372 16.879 187.618 17.6696 186.304 17.6696H184.163V14.028Z" fill="#015057"/>
<path d="M77.6395 43.8522V31.2982H72.8706V48.0688H83.6979V43.8522H77.6395Z" fill="#015057"/>
<path d="M84.8232 48.0688H89.592V31.2982H84.8232V48.0688Z" fill="#015057"/>
<path d="M102.489 31.2982L99.1068 41.7439L95.6274 31.2982H90.2746L96.917 48.0688H101.297L107.817 31.2982H102.489Z" fill="#015057"/>
<path d="M108.538 48.0688H113.307V31.2982H108.538V48.0688Z" fill="#015057"/>
<path d="M126.277 31.2982V40.1147L119.732 31.2982H115.62V48.0688H120.17V38.9887L126.934 48.0688H130.827V31.2982H126.277Z" fill="#015057"/>
<path d="M140.967 39.1085V42.0314H145.201C144.665 43.3251 143.132 44.1876 141.332 44.1876C138.753 44.1876 137.074 42.3668 137.074 39.7075C137.074 37.0242 138.777 35.2034 141.332 35.2034C143.059 35.2034 144.592 36.1138 145.201 37.5273H150.14C149.41 33.6461 145.76 30.891 141.283 30.891C136.052 30.891 132.257 34.6044 132.257 39.7075C132.257 44.8105 136.125 48.5 141.332 48.5C146.66 48.5 150.31 44.5949 150.31 39.1085H140.967Z" fill="#015057"/>
<defs>
<linearGradient id="paint0_linear_836_589" x1="29.4353" y1="3.1642" x2="29.4353" y2="47.0678" gradientUnits="userSpaceOnUse">
<stop stop-color="#FFB34E"/>
<stop offset="1" stop-color="#E44B0B"/>
</linearGradient>
<clipPath id="clip0_836_589">
<rect width="58.8707" height="45.8992" fill="white" transform="translate(0 0.669678)"/>
</clipPath>
</defs>
</svg>
