<svg width="101" height="100" viewBox="0 0 101 100" fill="none" xmlns="http://www.w3.org/2000/svg">
<path d="M20.3231 33.6252C26.2788 31.4684 31.4091 32.7037 36.7044 40.2027C45.6092 50.7252 11.71 56.8663 6.61503 49.5355C1.52006 42.2042 14.3673 35.782 20.3231 33.6252Z" fill="white"/>
<path d="M27.197 25.5524C31.3652 27.0938 32.2999 30.8957 27.9208 39.7985C22.3494 53.0991 3.89217 39.419 8.20504 30.7604C12.518 22.1019 23.0288 24.011 27.197 25.5524Z" fill="white"/>
<path d="M36.0717 54.3203C35.9849 58.9979 32.7554 61.1668 23.073 59.662C8.92098 58.3876 15.6718 35.4536 25.1059 36.9709C34.54 38.4883 36.1585 49.6428 36.0717 54.3203Z" fill="white"/>
<path d="M36.6289 32.6636C40.4898 30.23 44.1102 31.7301 48.4396 40.5152C55.5211 52.8607 32.9618 59.5794 28.785 50.992C24.6082 42.4047 32.7678 35.0971 36.6289 32.6636Z" fill="white"/>
<path d="M24.6398 27.6264C26.0513 23.6598 29.4777 22.7904 37.4625 27.0189C49.3974 32.4101 36.9795 49.935 29.214 45.771C21.4486 41.6071 23.2283 31.5931 24.6398 27.6264Z" fill="white"/>
<path d="M30.9565 41.2251C26.7759 39.345 26.1193 35.4921 31.3668 27.0209C38.2036 14.2838 56.1585 29.415 50.9992 37.6492C45.84 45.8832 35.1372 43.1053 30.9565 41.2251Z" fill="white"/>
<path d="M27.6255 33.7303C32.292 33.7303 36.0749 30.6567 36.0749 26.8652C36.0749 23.0736 32.292 20 27.6255 20C22.959 20 19.176 23.0736 19.176 26.8652C19.176 30.6567 22.959 33.7303 27.6255 33.7303Z" fill="white"/>
<path d="M8.61427 64.3595C11.5308 64.3595 13.8952 62.4681 13.8952 60.1348C13.8952 57.8016 11.5308 55.9101 8.61427 55.9101C5.69771 55.9101 3.33337 57.8016 3.33337 60.1348C3.33337 62.4681 5.69771 64.3595 8.61427 64.3595Z" fill="white"/>
<path d="M29.1779 46.4254C29.3926 46.442 29.5721 46.5353 29.7164 46.7048C29.8606 46.8748 29.9246 47.068 29.9082 47.2849L29.7122 49.8885C29.6958 50.1054 29.6036 50.2868 29.4356 50.4326C29.2675 50.5785 29.0762 50.6429 28.8615 50.6268L26.3435 50.4331C26.1288 50.4165 25.9493 50.3233 25.8051 50.1532C25.6608 49.9837 25.5968 49.7905 25.6132 49.5731L25.8093 46.9695C25.8256 46.7526 25.9178 46.5713 26.0858 46.4254C26.2539 46.28 26.4452 46.2151 26.66 46.2317L29.1779 46.4254ZM29.2725 29.5304C30.1899 29.6009 31.0684 29.7974 31.9079 30.1199C32.767 30.4439 33.509 30.8878 34.134 31.4516C34.78 31.9973 35.2798 32.6606 35.6332 33.4417C35.9881 34.203 36.1292 35.0669 36.0564 36.0334C35.997 36.8223 35.8181 37.5031 35.5198 38.0751C35.2425 38.6292 34.8908 39.1279 34.4648 39.5711C34.0597 39.9964 33.6179 40.389 33.1392 40.7489C32.6621 41.0889 32.2052 41.4208 31.7685 41.7443C31.3529 42.0497 30.9748 42.3779 30.6343 42.7283C30.3133 43.0807 30.1071 43.4713 30.0159 43.9009C29.9605 44.1149 29.8586 44.2953 29.7101 44.4426C29.5615 44.5899 29.38 44.6552 29.1652 44.6391L26.9401 44.4677C26.7253 44.4511 26.5361 44.3574 26.3723 44.1859C26.2281 44.0164 26.1738 43.8237 26.2097 43.6082C26.3067 42.842 26.5134 42.1833 26.8297 41.6325C27.1671 41.0633 27.548 40.5665 27.9726 40.1432C28.4181 39.7013 28.8795 39.3102 29.3566 38.9702C29.8533 38.6311 30.3095 38.3091 30.7251 38.0041C31.1422 37.6788 31.4903 37.3585 31.7693 37.0427C32.0498 36.7072 32.2056 36.3324 32.2368 35.9181C32.2933 35.1686 32.027 34.5332 31.4381 34.0117C30.8506 33.4706 30.0396 33.1603 29.0051 33.0807C27.346 32.9531 26.0629 33.6975 25.1559 35.314C25.0419 35.5235 24.922 35.6829 24.7959 35.7922C24.6909 35.8833 24.5115 35.9191 24.2578 35.8996L21.8862 35.7172C21.7106 35.7037 21.5589 35.6325 21.4311 35.5037C21.3229 35.3763 21.2763 35.214 21.2911 35.0168C21.3627 34.3279 21.6203 33.6435 22.0642 32.9635C22.529 32.2652 23.1148 31.6556 23.8216 31.1346C24.5493 30.5954 25.3762 30.173 26.3023 29.8673C27.2479 29.5631 28.238 29.4508 29.2725 29.5304Z" fill="#172643"/>
<path d="M45.6061 48.2261C45.2197 43.3677 49.2768 38.7528 54.2074 38.3721L85.915 35.8678C90.8452 35.4873 95.5283 39.4851 95.9147 44.3439L97.3056 61.847C97.6915 66.7059 94.0078 70.9528 89.0772 71.3331L56.6237 73.8378C51.6931 74.2181 47.3829 70.5881 46.997 65.7292L45.6061 48.2261Z" fill="#172643"/>
<path d="M79.9658 79.1461L74.0974 68.5843H86.7716L79.9658 79.1461Z" fill="#172643"/>
<path d="M72.0496 45.3528C72.3484 45.3299 72.5791 45.3954 72.7418 45.5488C72.9031 45.6843 73.052 45.9037 73.1891 46.207L81.4448 63.0761C81.4677 63.13 81.4823 63.1933 81.4882 63.2668C81.5042 63.4687 81.4435 63.6487 81.3055 63.807C81.1675 63.9654 80.9961 64.0525 80.7905 64.0682L78.772 64.2234C78.3982 64.2521 78.1309 64.1987 77.9696 64.0637C77.807 63.9098 77.6918 63.7617 77.6238 63.619L76.1749 60.6565L67.3166 61.3375L66.3548 64.4859C66.3105 64.6371 66.22 64.8008 66.0839 64.9776C65.9459 65.136 65.6905 65.2293 65.3163 65.258L63.2981 65.4133C63.0925 65.429 62.9093 65.3693 62.748 65.2343C62.5868 65.0988 62.4981 64.9301 62.4821 64.7281C62.4762 64.655 62.4803 64.59 62.4945 64.5334L67.9754 46.6077C68.0627 46.2873 68.1751 46.0477 68.3126 45.8894C68.4492 45.7126 68.6667 45.613 68.966 45.5901L72.0496 45.3528ZM74.5548 57.3188L70.8457 49.7107L68.3876 57.793L74.5548 57.3188Z" fill="#97B9FF"/>
</svg>
