<svg width="80" height="80" viewBox="0 0 80 80" fill="none" xmlns="http://www.w3.org/2000/svg">
<g clip-path="url(#clip0_976_74)">
<path d="M40 0C17.47 0 0 16.51 0 38.8C0 50.46 4.78 60.54 12.56 67.5C13.21 68.08 13.61 68.9 13.63 69.78L13.85 76.9C13.866 77.4239 14.0105 77.9358 14.2707 78.3908C14.5309 78.8458 14.8988 79.2299 15.3422 79.5093C15.7856 79.7888 16.2909 79.9551 16.8136 79.9936C17.3363 80.032 17.8605 79.9415 18.34 79.73L26.28 76.23C26.95 75.93 27.71 75.88 28.42 76.07C32.07 77.07 35.95 77.61 40 77.61C62.53 77.61 80 61.1 80 38.81C80 16.52 62.53 0 40 0Z" fill="url(#paint0_radial_976_74)"/>
<path d="M15.98 50.15L27.73 31.51C28.1721 30.8082 28.7548 30.2057 29.4414 29.7405C30.128 29.2752 30.9036 28.9574 31.7193 28.8071C32.5349 28.6567 33.3729 28.6771 34.1802 28.8669C34.9876 29.0568 35.7469 29.4119 36.41 29.91L45.76 36.92C46.1775 37.2325 46.6853 37.4006 47.2067 37.3988C47.7281 37.3969 48.2348 37.2254 48.65 36.91L61.27 27.33C62.95 26.05 65.15 28.07 64.03 29.86L52.27 48.49C51.828 49.1918 51.2453 49.7943 50.5587 50.2595C49.8721 50.7247 49.0965 51.0426 48.2808 51.1929C47.4652 51.3433 46.6272 51.3229 45.8198 51.133C45.0125 50.9432 44.2532 50.588 43.59 50.09L34.24 43.08C33.8226 42.7675 33.3148 42.5994 32.7934 42.6012C32.2719 42.603 31.7653 42.7746 31.35 43.09L18.73 52.67C17.05 53.95 14.85 51.94 15.98 50.15Z" fill="white"/>
</g>
<defs>
<radialGradient id="paint0_radial_976_74" cx="0" cy="0" r="1" gradientUnits="userSpaceOnUse" gradientTransform="translate(13.4 80) scale(88 88)">
<stop stop-color="#0099FF"/>
<stop offset="0.6" stop-color="#A033FF"/>
<stop offset="0.9" stop-color="#FF5280"/>
<stop offset="1" stop-color="#FF7061"/>
</radialGradient>
<clipPath id="clip0_976_74">
<rect width="80" height="80" fill="white"/>
</clipPath>
</defs>
</svg>
