<svg width="101" height="100" viewBox="0 0 101 100" fill="none" xmlns="http://www.w3.org/2000/svg">
<path d="M26.0825 50.2432C23.5783 34.749 19.9657 24.978 14.2263 14.9569L66.7728 9.81875C70.4958 16.9994 77.3187 31.5127 79.2667 48.0681C81.4 66.2001 82.7257 79.0181 84.7903 84.0799L34.5929 89.8694C29.2739 78.966 28.087 62.6453 26.0825 50.2432Z" fill="#E9E9E9"/>
<path d="M44.1435 38.2534C44.1539 38.3464 44.1291 38.4306 44.069 38.5058C44.0089 38.581 43.9323 38.6238 43.8393 38.6342L42.2407 38.8128C42.1478 38.8233 42.0636 38.7984 41.9884 38.7383C41.9132 38.6782 41.8703 38.6017 41.86 38.5086L41.5012 35.2989C41.4605 34.9352 41.3391 34.6533 41.1369 34.4533C40.9348 34.2533 40.6434 34.1745 40.2628 34.217C39.8821 34.2596 39.6153 34.4007 39.4623 34.6405C39.3178 34.8793 39.2657 35.1806 39.3064 35.5442L39.6652 38.7539C39.6755 38.8469 39.6507 38.9311 39.5906 39.0063C39.5305 39.0815 39.4539 39.1244 39.3609 39.1347L37.7624 39.3134C37.6694 39.3238 37.5853 39.299 37.51 39.2389C37.4348 39.1788 37.392 39.1022 37.3816 39.0092L36.7208 33.0972C36.7104 33.0042 36.7353 32.9201 36.7953 32.8448C36.8555 32.7696 36.932 32.7268 37.0251 32.7164L38.5601 32.5448C38.6532 32.5344 38.7373 32.5592 38.8125 32.6194C38.8878 32.6794 38.9305 32.756 38.941 32.849L38.9736 33.1408C39.0318 33.0487 39.1064 32.9505 39.1975 32.846C39.2886 32.7417 39.4023 32.6476 39.5385 32.5639C39.6738 32.4717 39.8321 32.3941 40.0135 32.331C40.2023 32.2585 40.4236 32.2081 40.6773 32.1797C41.0832 32.1344 41.4621 32.1519 41.8136 32.2326C42.1641 32.3047 42.4711 32.4459 42.7344 32.6563C43.0062 32.8657 43.23 33.1447 43.406 33.4932C43.5819 33.8418 43.6978 34.2656 43.7536 34.7646L44.1435 38.2534Z" fill="#5A5478"/>
<path d="M47.4208 31.426C47.6661 31.3985 47.8846 31.3999 48.0764 31.4298C48.2681 31.4597 48.4359 31.5052 48.5797 31.5662C48.7236 31.6272 48.8472 31.699 48.9506 31.7817C49.0531 31.8558 49.1383 31.9277 49.206 31.9972L48.9039 29.2949C48.8935 29.2019 48.9184 29.1178 48.9785 29.0426C49.0385 28.9673 49.1151 28.9245 49.2082 28.9141L50.8067 28.7354C50.8997 28.7251 50.9838 28.7499 51.0591 28.81C51.1343 28.8701 51.1771 28.9467 51.1875 29.0397L52.1177 37.3621C52.1281 37.4551 52.1033 37.5392 52.0431 37.6145C51.983 37.6897 51.9065 37.7325 51.8135 37.7429L50.2783 37.9145C50.1853 37.9249 50.1012 37.9001 50.026 37.8399C49.9508 37.7799 49.9079 37.7033 49.8976 37.6103L49.8649 37.3185C49.7992 37.42 49.725 37.5225 49.6424 37.6259C49.5673 37.7199 49.4663 37.8126 49.3395 37.9038C49.2202 37.9857 49.0656 38.0586 48.8758 38.1226C48.6954 38.1942 48.4657 38.2456 48.1866 38.2767C47.806 38.3193 47.4403 38.3045 47.0898 38.2324C46.7383 38.1517 46.4224 38.0072 46.1421 37.7988C45.861 37.5819 45.6198 37.3006 45.4184 36.9548C45.2256 36.6081 45.0928 36.1863 45.0201 35.6892C44.9974 35.5632 44.9743 35.3945 44.9506 35.1831C44.9261 34.9632 44.9109 34.7894 44.9052 34.6615C44.8663 34.1606 44.9027 33.7199 45.0143 33.3392C45.1344 32.9575 45.308 32.6341 45.5353 32.3689C45.7616 32.0953 46.0373 31.8803 46.3624 31.7241C46.6874 31.5679 47.0403 31.4685 47.4208 31.426ZM47.1931 34.5599C47.1942 34.7996 47.2207 35.0364 47.2725 35.2704C47.331 35.5636 47.4571 35.8107 47.6508 36.0117C47.8445 36.2126 48.1401 36.291 48.5377 36.2465C48.7237 36.2257 48.8811 36.1781 49.0099 36.1038C49.1385 36.0295 49.24 35.9411 49.3142 35.8386C49.3958 35.7267 49.4555 35.6088 49.493 35.4847C49.5305 35.3606 49.5506 35.2342 49.5533 35.1054C49.5561 34.9767 49.548 34.8277 49.5291 34.6585C49.5102 34.4894 49.4852 34.3423 49.4541 34.2174C49.423 34.0924 49.3755 33.9735 49.3115 33.8608C49.2475 33.7481 49.1638 33.6504 49.0603 33.5677C48.9644 33.4757 48.8455 33.4076 48.7035 33.3635C48.5616 33.3194 48.3976 33.3078 48.2115 33.3286C47.814 33.3731 47.543 33.5147 47.3984 33.7535C47.2538 33.9923 47.1854 34.2611 47.1931 34.5599Z" fill="#5A5478"/>
<path d="M55.8702 36.9427C55.8805 37.0357 55.8557 37.1199 55.7956 37.1951C55.7355 37.2703 55.6589 37.3131 55.5659 37.3235L53.9674 37.5022C53.8744 37.5126 53.7903 37.4877 53.715 37.4276C53.6398 37.3675 53.597 37.291 53.5866 37.1979L52.9258 31.286C52.9154 31.1929 52.9403 31.1088 53.0003 31.0335C53.0605 30.9583 53.137 30.9156 53.2301 30.9051L54.8286 30.7265C54.9216 30.716 55.0057 30.7409 55.081 30.801C55.1562 30.8611 55.199 30.9377 55.2094 31.0307L55.8702 36.9427ZM55.0548 29.6479C55.0653 29.7409 55.0404 29.8251 54.9803 29.9003C54.9202 29.9755 54.8436 30.0183 54.7506 30.0287L53.1521 30.2074C53.059 30.2178 52.9749 30.1929 52.8997 30.1328C52.8244 30.0727 52.7817 29.9962 52.7712 29.9031L52.628 28.6218C52.6176 28.5287 52.6425 28.4446 52.7026 28.3694C52.7627 28.2942 52.8392 28.2514 52.9323 28.241L54.5308 28.0623C54.6238 28.0519 54.708 28.0767 54.7832 28.1369C54.8584 28.1969 54.9012 28.2735 54.9116 28.3665L55.0548 29.6479Z" fill="#5A5478"/>
<path d="M60.8877 34.7249C60.8772 34.6319 60.8354 34.5638 60.762 34.5206C60.6972 34.4764 60.5867 34.446 60.4307 34.4292C60.2747 34.4123 60.0679 34.4012 59.8104 34.3957C59.5613 34.3893 59.247 34.3731 58.8672 34.347C58.2112 34.3004 57.69 34.1189 57.3035 33.8024C56.917 33.486 56.6917 33.0401 56.6274 32.4651C56.5952 32.1775 56.6374 31.9031 56.7537 31.6417C56.8701 31.3804 57.0447 31.1424 57.2777 30.9281C57.519 30.7126 57.8159 30.5339 58.1683 30.3917C58.5197 30.2412 58.9195 30.1408 59.3677 30.0907C59.8076 30.0415 60.2197 30.0511 60.6041 30.1195C60.9876 30.1794 61.3241 30.2788 61.6136 30.4177C61.9022 30.5481 62.1349 30.7148 62.3118 30.9177C62.4961 31.1112 62.6086 31.3127 62.6491 31.5222C62.6679 31.6144 62.6431 31.6985 62.5745 31.7747C62.5145 31.8499 62.4379 31.8927 62.3449 31.9031L60.8352 32.0718C60.7421 32.0822 60.6636 32.0696 60.5997 32.0339C60.5443 31.9973 60.4756 31.9579 60.3938 31.9156C60.312 31.8734 60.2053 31.8382 60.0737 31.8101C59.9506 31.781 59.779 31.7788 59.5592 31.8034C59.3647 31.8251 59.203 31.8732 59.0743 31.9475C58.9531 32.0124 58.8996 32.1083 58.9138 32.2352C58.9242 32.3282 58.9534 32.3978 59.0013 32.4438C59.0493 32.4898 59.1386 32.5226 59.2693 32.5423C59.399 32.5535 59.5799 32.5632 59.812 32.5715C60.0442 32.5799 60.3496 32.5928 60.7284 32.6104C61.5122 32.6513 62.0997 32.851 62.4909 33.2098C62.8896 33.5592 63.1173 33.9876 63.174 34.495C63.2062 34.7826 63.1645 35.0613 63.0491 35.331C62.9328 35.5924 62.7459 35.836 62.4886 36.0617C62.2302 36.279 61.9085 36.4647 61.5232 36.6192C61.138 36.7735 60.6917 36.8791 60.1842 36.9358C59.6768 36.9925 59.2223 36.9876 58.821 36.9212C58.4272 36.8453 58.0893 36.7332 57.8072 36.5849C57.5252 36.4366 57.3004 36.2647 57.133 36.0694C56.974 35.8731 56.8747 35.6744 56.8352 35.4733C56.8163 35.3812 56.837 35.2975 56.897 35.2223C56.9656 35.1461 57.0464 35.1029 57.1394 35.0924L58.7125 34.9166C58.8056 34.9062 58.8761 34.924 58.924 34.9701C58.9711 35.0076 59.0317 35.0522 59.106 35.1038C59.1793 35.147 59.2822 35.1869 59.4148 35.2235C59.5464 35.2516 59.739 35.2515 59.9928 35.2231C60.2465 35.1947 60.4627 35.1363 60.6411 35.0479C60.8197 34.9594 60.9018 34.8517 60.8877 34.7249Z" fill="#5A5478"/>
<path d="M39.9895 44.4876L65.7866 41.2962" stroke="#D2D2D2" stroke-width="3" stroke-linecap="round"/>
<path d="M41.0532 49.8066L66.8504 46.6152" stroke="#D2D2D2" stroke-width="3" stroke-linecap="round"/>
<path d="M42.1169 55.1256L67.914 51.9342" stroke="#D2D2D2" stroke-width="3" stroke-linecap="round"/>
<path d="M58.3431 59.2178C69.096 59.2178 77.8129 50.5322 77.8129 39.8181C77.8129 29.1039 69.096 20.4183 58.3431 20.4183C47.5902 20.4183 38.8733 29.1039 38.8733 39.8181C38.8733 50.5322 47.5902 59.2178 58.3431 59.2178Z" fill="#A4E0EF" fill-opacity="0.5"/>
<path d="M92.0389 68.0634L78.882 54.9572C78.0153 54.0941 76.8653 53.6147 75.6431 53.6147C75.6403 53.6133 75.6361 53.6133 75.6334 53.612C75.609 53.612 75.5854 53.616 75.5618 53.616C78.5549 49.6819 80.1778 44.9102 80.1792 39.8876C80.1792 33.7987 77.7986 28.0739 73.475 23.7686C69.1528 19.4646 63.4068 17.0927 57.2952 17.0927C51.1823 17.0927 45.4363 19.4646 41.1145 23.7699C32.1923 32.6574 32.1923 47.1199 41.1145 56.008C45.4363 60.314 51.1823 62.6852 57.2926 62.6852C62.3337 62.6852 67.1237 61.0683 71.0743 58.0854C71.0743 58.1128 71.0702 58.1401 71.0702 58.1675C71.0729 59.3857 71.55 60.5315 72.4167 61.3934L85.5757 74.5049C86.441 75.3653 87.5924 75.8437 88.816 75.8458C88.8167 75.8444 88.8209 75.8458 88.825 75.8458C90.0445 75.8458 91.1903 75.3722 92.0507 74.5153C92.9153 73.6542 93.3903 72.509 93.3889 71.2903C93.3861 70.0722 92.907 68.9266 92.0389 68.0634ZM69.9243 52.4727C66.5495 55.8347 62.0636 57.6854 57.2926 57.6854C52.5222 57.6854 48.0376 55.8347 44.664 52.474C37.699 45.5342 37.6984 34.2436 44.664 27.3052C48.0369 23.9445 52.5229 22.0931 57.2945 22.0931C62.0656 22.0931 66.5515 23.9445 69.925 27.3052C73.3007 30.666 75.159 35.1354 75.159 39.8883C75.159 44.6418 73.3 49.1112 69.9243 52.4727Z" fill="#212121"/>
</svg>
