<svg width="34" height="24" viewBox="0 0 34 24" fill="none" xmlns="http://www.w3.org/2000/svg">
<path d="M8.32 23.92C6.02667 23.92 4.05333 23.04 2.4 21.28C0.8 19.4667 0 16.88 0 13.52C0 9.25333 1.09333 5.94667 3.28 3.6C5.52 1.2 8.66667 0 12.72 0C13.7867 0 14.72 0.079999 15.52 0.239997V4.64C14.2933 4.48 13.3067 4.4 12.56 4.4C10.32 4.4 8.58667 5.09333 7.36 6.48C6.13333 7.70666 5.44 9.22666 5.28 11.04C6.02667 10.1333 7.2 9.68 8.8 9.68C10.7733 9.68 12.4 10.3733 13.68 11.76C14.96 13.0933 15.6 14.7733 15.6 16.8C15.6 18.88 14.9067 20.5867 13.52 21.92C12.1867 23.2533 10.4533 23.92 8.32 23.92ZM26.08 23.92C23.7867 23.92 21.8133 23.04 20.16 21.28C18.56 19.4667 17.76 16.88 17.76 13.52C17.76 9.25333 18.8533 5.94667 21.04 3.6C23.28 1.2 26.4267 0 30.48 0C31.5467 0 32.48 0.079999 33.28 0.239997V4.64C32.0533 4.48 31.0667 4.4 30.32 4.4C28.08 4.4 26.3467 5.09333 25.12 6.48C23.8933 7.70666 23.2 9.22666 23.04 11.04C23.7867 10.1333 24.96 9.68 26.56 9.68C28.5333 9.68 30.16 10.3733 31.44 11.76C32.72 13.0933 33.36 14.7733 33.36 16.8C33.36 18.88 32.6667 20.5867 31.28 21.92C29.9467 23.2533 28.2133 23.92 26.08 23.92Z" fill="#4748BE"/>
</svg>
