<svg width="120" height="120" viewBox="0 0 120 120" fill="none" xmlns="http://www.w3.org/2000/svg">
<path d="M47.6009 22H17.3991C14.4173 22 12 24.4343 12 27.4371V85.5629C12 88.5657 14.4173 91 17.3991 91H47.6009C50.5827 91 53 88.5657 53 85.5629V27.4371C53 24.4343 50.5827 22 47.6009 22Z" fill="#212121"/>
<path d="M48.6311 28H15.3689C14.6129 28 14 28.6124 14 29.3678V84.6322C14 85.3876 14.6129 86 15.3689 86H48.6311C49.3871 86 50 85.3876 50 84.6322V29.3678C50 28.6124 49.3871 28 48.6311 28Z" fill="white"/>
<path d="M23.5 54C24.8807 54 26 52.8807 26 51.5C26 50.1193 24.8807 49 23.5 49C22.1193 49 21 50.1193 21 51.5C21 52.8807 22.1193 54 23.5 54Z" fill="#4AC1E0"/>
<path d="M41.9727 53.9544C43.3282 53.6934 44.2155 52.3829 43.9544 51.0273C43.6934 49.6717 42.3829 48.7845 41.0273 49.0456C39.6718 49.3066 38.7845 50.6171 39.0456 51.9726C39.3066 53.3282 40.6171 54.2155 41.9727 53.9544Z" fill="#4AC1E0"/>
<path d="M38.3528 58.1842L26.6472 58C26.2651 58 25.9634 58.3138 26.0036 58.6643C26.3657 61.6742 29.1412 64 32.5 64C35.8588 64 38.6344 61.8584 38.9964 58.8492C39.0366 58.4986 38.7349 58.1842 38.3528 58.1842Z" fill="#4AC1E0"/>
<path d="M92.6076 19.8675L62.3446 24.7084C59.3567 25.1864 57.322 27.996 57.8 30.9839L67.0516 88.8197C67.5295 91.8076 70.3391 93.8423 73.327 93.3643L103.59 88.5234C106.578 88.0454 108.613 85.2358 108.135 82.248L98.883 24.4121C98.4051 21.4242 95.5955 19.3895 92.6076 19.8675Z" fill="#212121"/>
<path d="M94.8774 25.7254L62.0139 30.9824C61.2669 31.1019 60.7582 31.8043 60.8777 32.5512L69.619 87.1971C69.7385 87.944 70.4409 88.4527 71.1879 88.3332L104.051 83.0763C104.798 82.9568 105.307 82.2544 105.188 81.5074L96.4463 26.8616C96.3268 26.1146 95.6244 25.6059 94.8774 25.7254Z" fill="#0075A9"/>
<path d="M73.8957 54.9684C75.2586 54.7509 76.1866 53.4694 75.9681 52.1062C75.7496 50.7429 74.4672 49.8141 73.1043 50.0316C71.7407 50.2491 70.8134 51.5305 71.0319 52.8938C71.2504 54.2571 72.5328 55.1859 73.8957 54.9684Z" fill="white"/>
<path d="M91.684 52.8491C92.7215 52.3778 93.2565 50.9441 92.8789 49.6466C92.5008 48.3492 91.3535 47.6796 90.3155 48.1509C89.278 48.6221 88.7436 50.0559 89.1211 51.3534C89.4993 52.6507 90.6466 53.3204 91.684 52.8491Z" fill="white"/>
<path d="M89.2361 57.0076L77.5482 58.5926C77.1674 58.6506 76.9219 59.021 77.0227 59.3785C77.9072 62.4415 81.0756 64.43 84.4197 63.9205C87.7645 63.4109 90.1551 60.7712 89.9921 57.5987C89.9712 57.229 89.6161 56.9497 89.2361 57.0076Z" fill="white"/>
</svg>
